<svg width="164" height="44" viewBox="0 0 164 44" fill="none" xmlns="http://www.w3.org/2000/svg">
<rect x="0.75" y="0.75" width="42.5" height="42.5" rx="13.25" fill="url(#paint0_linear_1_2)"/>
<rect x="0.75" y="0.75" width="42.5" height="42.5" rx="13.25" stroke="#CBD5E1" stroke-opacity="0.7" stroke-width="1.5"/>
<path d="M12 30V14.5H20.5C24.2 14.5 26.6 16.6 26.6 19.7C26.6 22.7 24.2 24.8 20.5 24.8H15.6V30H12ZM15.6 21.9H20.2C21.9 21.9 23 21.1 23 19.7C23 18.3 21.9 17.5 20.2 17.5H15.6V21.9Z" fill="#0F172A"/>
<path d="M30 29.8C30 27.6 31.8 26.1 34.4 26.1H38V25.6C38 24.4 37.2 23.6 35.8 23.6C34.6 23.6 33.8 24.2 33.6 25.2H30.5C30.7 22.7 32.8 21.1 35.9 21.1C39.3 21.1 41.1 22.8 41.1 25.6V30H38.2V28.8C37.5 29.7 36.3 30.2 34.9 30.2C32.1 30.2 30 28.8 30 29.8ZM33.1 29.7C33.1 30.4 33.8 31 35 31C36.7 31 38 29.9 38 28.5V28.3H34.9C33.8 28.3 33.1 28.8 33.1 29.7Z" fill="#0F172A"/>
<path d="M54.6 30H50.8L47.2 24.7H45.8V30H42.2V14.5H50.5C54 14.5 56.3 16.4 56.3 19.5C56.3 21.7 55 23.3 52.9 24L54.6 30ZM45.8 21.8H50.2C51.8 21.8 52.8 21 52.8 19.6C52.8 18.3 51.8 17.5 50.2 17.5H45.8V21.8Z" fill="#0F172A"/>
<path d="M61.2 30.2C58.1 30.2 56.1 28.3 56.1 25.5C56.1 22.9 58 21.1 60.9 21.1C63.8 21.1 65.6 22.8 65.6 25.5C65.6 25.9 65.6 26.1 65.5 26.5H59.2C59.4 27.8 60.4 28.6 61.7 28.6C62.8 28.6 63.6 28.1 64 27.3H65.4C64.9 29.1 63.3 30.2 61.2 30.2ZM59.2 24.9H63C62.9 23.8 62.1 23 60.9 23C59.8 23 59.1 23.7 59.2 24.9Z" fill="#0F172A"/>
<path d="M72.2 30.2C69.4 30.2 67.3 28.1 67.3 25.6C67.3 23.1 69.4 21.1 72.1 21.1C74.2 21.1 75.9 22.3 76.5 24.2H74.9C74.4 23.2 73.4 22.6 72.2 22.6C70.4 22.6 69 23.9 69 25.6C69 27.4 70.4 28.7 72.2 28.7C73.5 28.7 74.5 28.1 75 27.1H76.6C76 29 74.3 30.2 72.2 30.2Z" fill="#2563EB"/>
<path d="M80.3 18.8C79.7 18.8 79.2 18.3 79.2 17.7C79.2 17.1 79.7 16.6 80.3 16.6C80.9 16.6 81.4 17.1 81.4 17.7C81.4 18.3 80.9 18.8 80.3 18.8ZM79.5 30V21.3H81.1V30H79.5Z" fill="#2563EB"/>
<path d="M87.8 30.2C85.7 30.2 84.1 29.1 83.8 27.4H85.3C85.6 28.3 86.5 28.8 87.8 28.8C89 28.8 89.8 28.3 89.8 27.5C89.8 26.8 89.2 26.4 87.6 26.1C85.3 25.7 84.1 25 84.1 23.6C84.1 22.1 85.6 21.1 87.7 21.1C89.8 21.1 91.3 22.1 91.6 23.8H90.1C89.8 22.9 88.9 22.5 87.7 22.5C86.6 22.5 85.9 23 85.9 23.7C85.9 24.4 86.5 24.7 88 25C90.3 25.4 91.6 26.1 91.6 27.5C91.6 29.1 90 30.2 87.8 30.2Z" fill="#2563EB"/>
<path d="M95.1 18.8C94.5 18.8 94 18.3 94 17.7C94 17.1 94.5 16.6 95.1 16.6C95.7 16.6 96.2 17.1 96.2 17.7C96.2 18.3 95.7 18.8 95.1 18.8ZM94.3 30V21.3H95.9V30H94.3Z" fill="#2563EB"/>
<path d="M102.8 30.2C100.2 30.2 98 28.2 98 25.7C98 23.2 100.2 21.1 102.8 21.1C105.4 21.1 107.5 23.2 107.5 25.7C107.5 28.2 105.4 30.2 102.8 30.2ZM102.8 28.7C104.5 28.7 105.9 27.4 105.9 25.7C105.9 24 104.5 22.6 102.8 22.6C101.1 22.6 99.7 24 99.7 25.7C99.7 27.4 101.1 28.7 102.8 28.7Z" fill="#2563EB"/>
<path d="M109.3 30V21.3H110.9V22.7C111.6 21.7 112.7 21.1 114.1 21.1C116.4 21.1 117.8 22.6 117.8 25V30H116.2V25.2C116.2 23.6 115.3 22.6 113.8 22.6C112.2 22.6 110.9 23.9 110.9 25.6V30H109.3Z" fill="#2563EB"/>
<defs>
<linearGradient id="paint0_linear_1_2" x1="4" y1="3" x2="40" y2="41" gradientUnits="userSpaceOnUse">
<stop stop-color="#EFF6FF"/>
<stop offset="1" stop-color="#DBEAFE"/>
</linearGradient>
</defs>
</svg>
